<?xml version="1.0" encoding="UTF-8"?>
<svg version="1.1" xmlns="http://www.w3.org/2000/svg" width="256" height="256">
<path d="M0 0 C84.48 0 168.96 0 256 0 C256 84.48 256 168.96 256 256 C171.52 256 87.04 256 0 256 C0 171.52 0 87.04 0 0 Z " fill="#FEFEFE" transform="translate(0,0)"/>
<path d="M0 0 C10.93292405 3.95667727 21.38339447 11.31112035 30 19 C30.90363281 19.79792969 31.80726563 20.59585937 32.73828125 21.41796875 C38.03784174 26.38035111 42.23321288 31.38096539 46 37.5625 C46.3616626 38.1510376 46.7233252 38.7395752 47.09594727 39.34594727 C54.58251635 52.31733849 55.22631009 68.31508057 51.66259766 82.67358398 C47.85054938 95.86376731 41.11224748 108.71900774 32 119 C31.32453125 119.78246094 30.6490625 120.56492187 29.953125 121.37109375 C22.50802354 129.83263637 14.60452365 137.91824725 6.0390625 145.25 C-9.82312478 158.86352471 -27.65615721 174.36818989 -29.484375 196.59765625 C-30.2994585 214.46414136 -24.38467271 228.75701051 -12.5625 242.1875 C-11.38285861 243.46563137 -10.1983527 244.73939521 -9 246 C-12 247 -12 247 -14.86328125 245.734375 C-31.45306337 236.19008359 -45.72880361 225.13675978 -55 208 C-55.5775 206.989375 -56.155 205.97875 -56.75 204.9375 C-62.56749503 191.26638669 -61.87994896 173.63589175 -56.671875 159.90234375 C-50.03331327 143.92678292 -40.75804302 130.92017161 -29.0625 118.25 C-27.24942906 116.27210442 -25.52960986 114.24803183 -23.8125 112.1875 C-17.20774238 104.59511508 -9.42540728 97.86236053 -1.75 91.375 C10.33549403 80.81310458 22.3409044 66.13822161 23.46875 49.421875 C23.50299763 47.86492512 23.51287003 46.30727332 23.5 44.75 C23.49355469 43.92371094 23.48710937 43.09742188 23.48046875 42.24609375 C23.10979039 29.70155753 17.75253659 20.58409309 10 11 C9.52175781 10.39285156 9.04351562 9.78570312 8.55078125 9.16015625 C5.90756163 5.88323098 3.01477027 2.92863398 0 0 Z " fill="#CF2D2D" transform="translate(116,4)"/>
<path d="M0 0 C3.4049696 3.15578144 4.99885038 6.65208908 6.9375 10.8125 C7.29013916 11.56426514 7.64277832 12.31603027 8.00610352 13.09057617 C11.10949935 19.89337475 13.23904019 26.72733546 15 34 C15.26151855 34.93610107 15.26151855 34.93610107 15.52832031 35.89111328 C17.91864961 46.57831019 17.29784021 60.39149478 12 70 C11.56429687 70.7940625 11.12859375 71.588125 10.6796875 72.40625 C7.29318415 77.95789483 3.18431781 82.11176164 -2 86 C-2.6703125 86.51304687 -3.340625 87.02609375 -4.03125 87.5546875 C-14.03121913 94.35044117 -26.87681707 96.83304543 -38.5 99.5625 C-54.24415252 103.39875125 -67.18237053 111.34745395 -76 125.125 C-79.0960366 133.67405591 -77.39496648 144.4679319 -75 153 C-78.92408209 149.42096651 -81.4424518 145.86902978 -83.75 141.0625 C-84.20439453 140.17014648 -84.20439453 140.17014648 -84.66796875 139.25976562 C-89.48544693 129.46422666 -89.70608001 115.11028028 -86.9375 104.5625 C-80.59329631 87.4594624 -66.04860277 75.67517422 -52 65 C-51.4136377 64.55382324 -50.82727539 64.10764648 -50.22314453 63.64794922 C-49.6557959 63.21627441 -49.08844727 62.78459961 -48.50390625 62.33984375 C-41.72141748 57.17571269 -35.19826766 51.86621761 -29 46 C-28.1440625 45.19691406 -27.288125 44.39382812 -26.40625 43.56640625 C-13.77165149 31.36945197 -5.98497261 16.37992503 0 0 Z " fill="#D76736" transform="translate(184,97)"/>
<path d="M0 0 C0 4.15173191 -2.21584742 6.06943177 -4.8125 9.0625 C-5.31096436 9.64104736 -5.80942871 10.21959473 -6.32299805 10.81567383 C-21.47620758 28.09991518 -44.40526365 45.04451837 -67 51 C-69.7578125 50.73828125 -69.7578125 50.73828125 -72 50 C-72.33 49.34 -72.66 48.68 -73 48 C-72.01 47.505 -72.01 47.505 -71 47 C-70.89032311 45.22829644 -70.79412212 43.45444216 -70.77563477 41.67944336 C-70.68176141 33.69841981 -69.93674714 27.84021467 -64 22 C-52.67697671 12.10225237 -38.54952871 9.86483881 -24.24926758 7.07275391 C-15.84392001 5.41939744 -7.81564764 3.65117469 0 0 Z " fill="#E3963D" transform="translate(180,203)"/>
<path d="M0 0 C0.33 0 0.66 0 1 0 C1.20496094 1.03640625 1.40992187 2.0728125 1.62109375 3.140625 C1.89317769 4.51042689 2.16531596 5.88021799 2.4375 7.25 C2.57220703 7.93191406 2.70691406 8.61382812 2.84570312 9.31640625 C3.49220711 12.56469458 4.15002695 15.79815978 5 19 C1.17330957 15.57611908 -0.72278474 12.99275057 -2 8 C-1.67 7.67 -1.34 7.34 -1 7 C-0.63239269 4.67182036 -0.29758419 2.3381615 0 0 Z " fill="#D66025" transform="translate(104,231)"/>
<path d="M0 0 C0.99 0.33 1.98 0.66 3 1 C-0.63 4.63 -4.26 8.26 -8 12 C-8.66 11.34 -9.32 10.68 -10 10 C-6.7 6.7 -3.4 3.4 0 0 Z " fill="#D03B3B" transform="translate(100,108)"/>
<path d="M0 0 C0.33 0 0.66 0 1 0 C1 4.62 1 9.24 1 14 C-2 10 -2 10 -1.85546875 7.421875 C-1.63503906 6.54015625 -1.41460937 5.6584375 -1.1875 4.75 C-0.97480469 3.85796875 -0.76210937 2.9659375 -0.54296875 2.046875 C-0.36378906 1.37140625 -0.18460937 0.6959375 0 0 Z " fill="#F0CEB8" transform="translate(109,236)"/>
<path d="M0 0 C3.45925163 1.2491742 6.14693203 2.67527795 9 5 C8.01 6.485 8.01 6.485 7 8 C4.35247996 5.42215154 2.05567935 3.08351902 0 0 Z " fill="#D13838" transform="translate(116,4)"/>
<path d="M0 0 C0.99 0.33 1.98 0.66 3 1 C-0.465 3.97 -0.465 3.97 -4 7 C-4 4 -4 4 -2 1.8125 C-1.34 1.214375 -0.68 0.61625 0 0 Z " fill="#D86F3E" transform="translate(160,138)"/>
<path d="M0 0 C5.875 3.75 5.875 3.75 7 6 C4.625 5.8125 4.625 5.8125 2 5 C0.6875 2.4375 0.6875 2.4375 0 0 Z " fill="#CE2424" transform="translate(100,245)"/>
</svg>
